<mxfile host="app.diagrams.net" modified="2024-06-25T14:53:11.884Z" agent="Mozilla/5.0 (Macintosh; Intel Mac OS X 10_15_7) AppleWebKit/537.36 (KHTML, like Gecko) Chrome/126.0.0.0 Safari/537.36" etag="0NNhjTt5iQOfbIS1yrdZ" version="24.6.2" type="github">
  <diagram name="Page-1" id="-OH5N1gNxdgirlV6hVIm">
    <mxGraphModel dx="1143" dy="794" grid="1" gridSize="10" guides="1" tooltips="1" connect="1" arrows="1" fold="1" page="1" pageScale="1" pageWidth="827" pageHeight="1169" math="0" shadow="0">
      <root>
        <mxCell id="0" />
        <mxCell id="1" parent="0" />
        <mxCell id="fq3kpPWR30mlZ0wuOtF--1" value="Operateur Point Focal" style="html=1;outlineConnect=0;whiteSpace=wrap;fillColor=#ffff99;verticalLabelPosition=bottom;verticalAlign=top;align=center;shape=mxgraph.archimate3.actor;" vertex="1" parent="1">
          <mxGeometry x="20" y="280" width="26.5" height="50" as="geometry" />
        </mxCell>
        <mxCell id="fq3kpPWR30mlZ0wuOtF--2" value="Crée l&#39;alerte" style="html=1;outlineConnect=0;whiteSpace=wrap;fillColor=#ffff99;shape=mxgraph.archimate3.process;" vertex="1" parent="1">
          <mxGeometry x="80" y="300" width="90" height="30" as="geometry" />
        </mxCell>
        <mxCell id="fq3kpPWR30mlZ0wuOtF--3" value="Resp. Catégorie" style="html=1;outlineConnect=0;whiteSpace=wrap;fillColor=#ffff99;verticalLabelPosition=bottom;verticalAlign=top;align=center;shape=mxgraph.archimate3.actor;" vertex="1" parent="1">
          <mxGeometry x="190" y="280" width="26.5" height="50" as="geometry" />
        </mxCell>
        <mxCell id="fq3kpPWR30mlZ0wuOtF--4" value="Valide l&#39;alerte" style="html=1;outlineConnect=0;whiteSpace=wrap;fillColor=#ffff99;shape=mxgraph.archimate3.process;" vertex="1" parent="1">
          <mxGeometry x="240" y="300" width="90" height="30" as="geometry" />
        </mxCell>
        <mxCell id="fq3kpPWR30mlZ0wuOtF--5" value="Coordinateur" style="html=1;outlineConnect=0;whiteSpace=wrap;fillColor=#ffff99;verticalLabelPosition=bottom;verticalAlign=top;align=center;shape=mxgraph.archimate3.actor;" vertex="1" parent="1">
          <mxGeometry x="370" y="280" width="26.5" height="50" as="geometry" />
        </mxCell>
      </root>
    </mxGraphModel>
  </diagram>
</mxfile>
